# xmcd
#
# Track frame offsets: 
#        150
#        22416
#        49592
#        78841
#        100198
#        116350
#        162246
#        176168
#        196815
#        208283
#        227701
#        241127
#        253893
#        271672
#        303414
#        315523
#        337550
#
# Disc length: 4787 seconds
#
# Revision: 0
# Processed by: cddbd v1.5.2PL0 Copyright (c) Steve Scherf et al.
# Submitted via: ExactAudioCopy v0.95b1
#
DISCID=dc12b111
DTITLE=Barry White - just another way to say i love you
DYEAR=1900
DGENRE=
TTITLE0=heavenly, that's what you are to me
TTITLE1=i'll do for you anything you want me to
TTITLE2=all because of you
TTITLE3=love serenade  part 1
TTITLE4=what am i gonna do with you
TTITLE5=let me live my life lovin' you
TTITLE6=love serenade  part 2
TTITLE7=dirty ol' man
TTITLE8=can't you see what you're doin
TTITLE9=a woman needs a good man
TTITLE10=when will i see you again
TTITLE11=i didn't know
TTITLE12=i like being a woman
TTITLE13=if and when
TTITLE14=year of decision
TTITLE15=i love every little thing about you
TTITLE16=doobedood'ndoobe, doobedood'nd
EXTD=
EXTT0=
EXTT1=
EXTT2=
EXTT3=
EXTT4=
EXTT5=
EXTT6=
EXTT7=
EXTT8=
EXTT9=
EXTT10=
EXTT11=
EXTT12=
EXTT13=
EXTT14=
EXTT15=
EXTT16=
PLAYORDER=
